<?xml version="1.0" encoding="UTF-8"?>
<svg version="1.1" xmlns="http://www.w3.org/2000/svg" width="507" height="321">
<path d="M0 0 C0 22.77 0 45.54 0 69 C75.57 69 151.14 69 229 69 C229 46.89 229 24.78 229 2 C235.7460241 4.2486747 235.7460241 4.2486747 239.1875 6.546875 C239.95690918 7.05468506 240.72631836 7.56249512 241.51904297 8.08569336 C242.7471167 8.90952515 242.7471167 8.90952515 244 9.75 C245.79359319 10.93462039 247.58788896 12.11817757 249.3828125 13.30078125 C250.30868164 13.91260254 251.23455078 14.52442383 252.18847656 15.15478516 C256.7208089 18.12937423 261.29671857 21.0343194 265.875 23.9375 C267.24591797 24.80810059 267.24591797 24.80810059 268.64453125 25.69628906 C270.50207171 26.87581423 272.35981934 28.05501321 274.21777344 29.23388672 C278.81447411 32.15179938 283.40703978 35.07620468 288 38 C289.83331322 39.16669827 291.66664656 40.33336492 293.5 41.5 C304.5 48.5 304.5 48.5 307.25073242 50.25048828 C309.08159753 51.41556948 310.9124894 52.58060864 312.7434082 53.74560547 C317.36472713 56.68618321 321.9855592 59.62752092 326.60546875 62.5703125 C327.53020996 63.1590918 328.45495117 63.74787109 329.40771484 64.35449219 C331.24321695 65.52356484 333.07818882 66.69347045 334.91259766 67.86425781 C339.45993173 70.76317301 344.01942165 73.63922122 348.60546875 76.4765625 C349.49274658 77.02812012 350.38002441 77.57967773 351.29418945 78.14794922 C352.9804004 79.19467292 354.67020976 80.23562785 356.36401367 81.27001953 C357.10756104 81.73263184 357.8511084 82.19524414 358.6171875 82.671875 C359.27315918 83.0750293 359.92913086 83.47818359 360.60498047 83.89355469 C361.06533691 84.25868164 361.52569336 84.62380859 362 85 C362 87 362 87 360.70703125 88.3046875 C359.76923828 89.08199219 359.76923828 89.08199219 358.8125 89.875 C354.94766182 93.15633686 351.2113955 96.54801173 347.5 100 C344.03764988 103.2121249 340.57348907 106.41105182 337 109.5 C332.88795707 113.05683038 328.9123038 116.75583684 324.92456055 120.45043945 C319.99335742 125.01610385 315.00693471 129.51752326 310 134 C304.59662142 138.84470939 299.21635577 143.71209075 293.875 148.625 C290.63782784 151.60218281 287.38862271 154.55952856 284.0625 157.4375 C279.86247457 161.07400001 275.80164409 164.85802742 271.74243164 168.65014648 C271.21641357 169.13942627 270.69039551 169.62870605 270.1484375 170.1328125 C269.68614746 170.56480957 269.22385742 170.99680664 268.74755859 171.44189453 C268.17086426 171.95606934 267.59416992 172.47024414 267 173 C266.2162264 173.84348558 265.43245279 174.68697117 264.62492847 175.55601692 C260.07434138 179.29876398 254.8911839 178.70452753 249.25358582 178.66183472 C248.06241207 178.67245693 246.87123832 178.68307915 245.6439684 178.69402325 C242.34517762 178.71824108 239.04776326 178.72008103 235.74898469 178.71225953 C232.18846839 178.70917844 228.62813879 178.73476035 225.06770325 178.75646973 C218.09507719 178.79411904 211.12267432 178.80417408 204.14995643 178.8035066 C198.48128729 178.80314942 192.81268926 178.81106847 187.14403725 178.82483292 C169.31499436 178.86727512 151.48617063 178.87975971 133.65708349 178.87016775 C119.59861136 178.86378062 105.54070823 178.90373784 91.48238298 178.96505271 C77.04167565 179.02754189 62.60124299 179.05649602 48.16039735 179.05014813 C40.05516953 179.04724113 31.95049761 179.0579418 23.84538841 179.10439682 C16.94428151 179.14365329 10.04401126 179.15153406 3.14285418 179.11907838 C-0.37676212 179.10340599 -3.89479954 179.10207192 -7.41427994 179.14014053 C-11.23447686 179.18101847 -15.05234744 179.15177232 -18.87263489 179.11593628 C-20.5314078 179.15014374 -20.5314078 179.15014374 -22.22369128 179.18504226 C-28.44104809 179.05843143 -31.55995607 178.08972496 -36.02358532 173.63728523 C-37.35770463 172.098981 -38.68381762 170.55367892 -40 169 C-41.22742426 167.87079067 -42.47381153 166.76129095 -43.75 165.6875 C-47.36917048 162.58020423 -50.87795835 159.36799602 -54.375 156.125 C-58.22596612 152.55563715 -62.08877607 149.00353935 -66 145.5 C-70.43620495 141.52469946 -74.81254398 137.48792332 -79.18359375 133.44140625 C-82.43383097 130.43589278 -85.7030565 127.45440391 -89 124.5 C-92.86662567 121.03510167 -96.69013786 117.52695432 -100.5 114 C-104.33155104 110.45329783 -108.17629453 106.92448051 -112.0625 103.4375 C-115.88159431 100.00721332 -119.69910654 96.57544437 -123.5 93.125 C-124.01699463 92.6602124 -124.53398926 92.1954248 -125.06665039 91.71655273 C-127.41749181 89.57575482 -129.2238138 87.66427929 -131 85 C-125.22687619 81.0854819 -119.45051947 77.17576781 -113.67211914 73.26904297 C-111.71568079 71.94554643 -109.75992647 70.62103805 -107.80493164 69.29541016 C-97.33180903 62.19489681 -86.8201549 55.19701255 -76.08958435 48.4912262 C-67.42045837 43.0513617 -58.96275826 37.30438624 -50.49804688 31.55355835 C-45.8115654 28.37120802 -41.11652212 25.20153664 -36.421875 22.03125 C-35.05742249 21.10961311 -35.05742249 21.10961311 -33.66540527 20.1693573 C-26.46550574 15.30852164 -19.25561349 10.46489589 -12 5.6875 C-10.64213379 4.78294067 -10.64213379 4.78294067 -9.25683594 3.86010742 C-8.45020508 3.33263916 -7.64357422 2.8051709 -6.8125 2.26171875 C-5.80123047 1.59595825 -5.80123047 1.59595825 -4.76953125 0.91674805 C-3 -0 -3 -0 0 0 Z M-11.65161133 14.36401367 C-12.42785355 14.88263474 -13.20409576 15.4012558 -14.00386047 15.93559265 C-14.85465683 16.50727676 -15.70545319 17.07896088 -16.58203125 17.66796875 C-17.46541672 18.25862625 -18.34880219 18.84928375 -19.25895691 19.45783997 C-22.11159502 21.36555979 -24.96219061 23.27630293 -27.8125 25.1875 C-39.30149336 32.88537695 -50.80397499 40.55563328 -62.41136169 48.0741272 C-72.60423055 54.67864697 -82.73727177 61.3737865 -92.875 68.0625 C-94.85282762 69.36659252 -96.83069207 70.67062918 -98.80859375 71.97460938 C-100.70315794 73.22390838 -102.59769041 74.47325549 -104.4921875 75.72265625 C-105.36092499 76.295569 -106.22966248 76.86848175 -107.12472534 77.45875549 C-111.42365289 80.29521354 -115.71777889 83.13837771 -120 86 C-116.9432452 92.81092454 -110.65098748 97.33911116 -105.1015625 102.1171875 C-102.81334889 104.16722274 -100.65739418 106.31295092 -98.5 108.5 C-95.11758601 111.9288279 -91.61929558 115.12048518 -87.96484375 118.25390625 C-85.18300852 120.72603418 -82.60624049 123.38430547 -79.99609375 126.03515625 C-78.07892823 127.92230744 -76.10424678 129.68685375 -74.0625 131.4375 C-71.07198284 134.00665271 -68.26883316 136.69317256 -65.5 139.5 C-62.7514401 142.28621141 -59.97140209 144.95308392 -57 147.5 C-53.21061189 150.74804695 -49.73378672 154.24922482 -46.23046875 157.80078125 C-43.59665119 160.39769769 -40.84638452 162.81579344 -38.01953125 165.19921875 C-36 167 -36 167 -33.59507465 170.06072426 C-29.97741091 173.65262839 -26.71354313 173.74168084 -21.76691073 173.8490814 C-20.12963069 173.8392367 -20.12963069 173.8392367 -18.45927429 173.82919312 C-17.29007928 173.84560872 -16.12088427 173.86202432 -14.91625911 173.87893736 C-11.67864861 173.91805498 -8.44223508 173.93034113 -5.20442903 173.93093848 C-1.70909656 173.93795213 1.78586359 173.97919709 5.2809906 174.01559448 C12.9220067 174.08839033 20.56279271 174.11634491 28.20410562 174.13526869 C32.9813514 174.14732366 37.75852475 174.16885021 42.53572655 174.19227982 C55.77831754 174.25580137 69.02084414 174.30919999 82.26359272 174.32178307 C83.11077748 174.32259734 83.95796224 174.32341161 84.83081926 174.32425056 C86.54809804 174.3258659 88.26537683 174.32747734 89.98265562 174.32908492 C91.26124963 174.33030165 91.26124963 174.33030165 92.56567383 174.33154297 C93.4191186 174.33234693 94.27256336 174.33315088 95.15187009 174.3339792 C108.95968156 174.34893667 122.765927 174.43778127 136.57317302 174.55925779 C150.76986649 174.68315038 164.96578193 174.74650856 179.16302651 174.74943793 C187.12601605 174.75243107 195.08707776 174.78052188 203.04955482 174.87507248 C209.8352637 174.95531457 216.61838431 174.97946048 223.40445564 174.93310122 C226.86159808 174.91108972 230.31360827 174.91380149 233.77013779 174.98803711 C250.96955643 175.46257052 250.96955643 175.46257052 265.59809703 167.48442614 C268.29697817 164.78867337 270.78480864 161.9742147 273.2144388 159.035146 C276.16710846 155.66975374 279.58526247 152.87985408 283 150 C285.14387707 148.06178191 287.25978181 146.09440963 289.375 144.125 C294.03833223 139.8013584 298.73696176 135.52181547 303.47265625 131.27734375 C306.33082203 128.70190225 309.16710261 126.10314236 312 123.5 C316.45332617 119.40830793 320.93659888 115.35177023 325.4375 111.3125 C328.81436369 108.26508643 332.16329326 105.1876003 335.51269531 102.11010742 C340.31089906 97.7055185 345.14908868 93.3465024 350 89 C348.85410127 85.5623038 348.31249188 85.28251392 345.34375 83.46875 C344.57788574 82.99405273 343.81202148 82.51935547 343.02294922 82.03027344 C341.77408936 81.27278809 341.77408936 81.27278809 340.5 80.5 C338.74164993 79.4123269 336.983847 78.32376884 335.2265625 77.234375 C333.89866699 76.41549805 333.89866699 76.41549805 332.54394531 75.58007812 C328.9558926 73.35149107 325.41326397 71.05652081 321.875 68.75 C314.83377791 64.17484744 307.76370952 59.64582257 300.6875 55.125 C292.3103711 49.77137526 283.95650678 44.38451832 275.62915039 38.95385742 C267.58328739 33.71368961 259.49300979 28.54336097 251.3984375 23.37890625 C250.39296875 22.73695312 249.3875 22.095 248.3515625 21.43359375 C247.41344727 20.83530762 246.47533203 20.23702148 245.50878906 19.62060547 C243.44790613 18.28933446 241.41834205 16.92712069 239.3984375 15.53515625 C237.19386233 13.82030246 237.19386233 13.82030246 235 14 C235 34.13 235 54.26 235 75 C155.14 75 75.28 75 -7 75 C-7 54.21 -7 33.42 -7 12 C-8.80813857 12 -10.19161333 13.38537246 -11.65161133 14.36401367 Z " fill="#0C5D38" transform="translate(138,0)"/>
<path d="M0 0 C1.93817313 1.12383992 3.87551518 2.24911321 5.8125 3.375 C6.89144531 4.00148438 7.97039062 4.62796875 9.08203125 5.2734375 C14.9305566 8.73401073 14.9305566 8.73401073 15.64453125 11.46875 C15.91494056 16.34869481 15.92987555 19.68406834 13.04296875 23.76953125 C10.46973329 26.34276671 7.81194329 28.69120385 5 31 C3.72719512 32.12276894 2.45618699 33.24758008 1.1875 34.375 C0.23423828 35.19097656 0.23423828 35.19097656 -0.73828125 36.0234375 C-3.71385214 38.62385006 -6.60418915 41.31141533 -9.5 44 C-12.96267274 47.21179712 -16.42649371 50.41103693 -20 53.5 C-23.52788747 56.55154823 -26.95356621 59.70540263 -30.375 62.875 C-35.87192804 67.96732379 -41.40861815 73.01128206 -47 78 C-47.60240961 78.64081986 -48.20481923 79.28163973 -48.82548368 79.94187838 C-53.77077306 84.9119375 -57.19173383 86.91665365 -64.22201121 87.06528515 C-65.24546779 87.04675725 -66.26892436 87.02822936 -67.32339478 87.00914001 C-68.43278833 87.02091437 -69.54218188 87.03268873 -70.68519342 87.04481989 C-74.38689433 87.07428926 -78.08591512 87.04682109 -81.78759766 87.01928711 C-84.44756064 87.02849437 -87.10734435 87.04082219 -89.76725769 87.05690002 C-96.2316758 87.08855027 -102.69532966 87.07726278 -109.15974309 87.05057388 C-114.41410322 87.02974098 -119.66825393 87.02497002 -124.92264938 87.0315876 C-125.67153181 87.03252474 -126.42041424 87.03346188 -127.19199007 87.03442742 C-128.7134832 87.03641299 -130.23497628 87.03844099 -131.75646929 87.04051096 C-146.00883809 87.05813286 -160.26078735 87.02756652 -174.51306717 86.97989214 C-186.7364133 86.94004937 -198.95924497 86.93925576 -211.18261719 86.9675293 C-225.38832901 87.00035775 -239.59374795 87.01069355 -253.7994827 86.98398215 C-255.31464914 86.98118219 -256.82981563 86.97840435 -258.34498215 86.97564888 C-259.09041616 86.97427396 -259.83585016 86.97289905 -260.60387308 86.97148247 C-265.85160148 86.96329332 -271.09916952 86.97095692 -276.34688187 86.98463249 C-282.74253598 87.00079108 -289.13757061 86.99172117 -295.53312255 86.95061522 C-298.79511366 86.93025491 -302.05591016 86.92474289 -305.3179493 86.94210434 C-308.85651264 86.95897629 -312.39222386 86.93279808 -315.93057251 86.89561462 C-317.47244954 86.91801402 -317.47244954 86.91801402 -319.0454756 86.94086593 C-324.2453051 86.83783472 -327.20179949 86.3972371 -330.96137047 82.64714909 C-331.97883712 81.43527173 -332.9917903 80.2195894 -334 79 C-335.20916212 77.89438308 -336.43662621 76.80819496 -337.6875 75.75 C-341.18714213 72.73283281 -344.60257089 69.63120277 -348 66.5 C-351.30013347 63.46095466 -354.6094976 60.43843541 -358 57.5 C-361.87817013 54.13677362 -365.65527811 50.66664329 -369.43310547 47.19189453 C-373.44675119 43.50166503 -377.48770049 39.84328795 -381.546875 36.203125 C-383.26985329 34.65573686 -384.98820528 33.10318943 -386.703125 31.546875 C-387.58484375 30.74765625 -388.4665625 29.9484375 -389.375 29.125 C-390.16648437 28.40570313 -390.95796875 27.68640625 -391.7734375 26.9453125 C-393.91785709 24.97471182 -393.91785709 24.97471182 -396.234375 23.5703125 C-398 22 -398 22 -398.7421875 19.546875 C-398.8900635 16.43278039 -398.84184642 14.0138102 -398 11 C-393.60511818 6.30085713 -387.69750469 3.80698178 -382 1 C-382.0220752 1.55872803 -382.04415039 2.11745605 -382.06689453 2.69311523 C-382.66223804 13.83724742 -382.66223804 13.83724742 -379.05859375 24.015625 C-376.48801551 26.25230966 -373.84163731 28.12270136 -371 30 C-369.35017928 31.43019324 -367.72491002 32.88918405 -366.125 34.375 C-365.30257812 35.11492187 -364.48015625 35.85484375 -363.6328125 36.6171875 C-360.22714247 39.69947047 -356.84389875 42.80590705 -353.46142578 45.91357422 C-349.53019444 49.52234634 -345.5679548 53.0949496 -341.59375 56.65625 C-339.64561481 58.41661312 -337.70926724 60.18658749 -335.78125 61.96875 C-335.23597656 62.47212891 -334.69070313 62.97550781 -334.12890625 63.49414062 C-333.06198858 64.4804638 -331.9968148 65.46867749 -330.93359375 66.45898438 C-327.30082087 69.81566652 -325.51016823 71.11831124 -320.59473133 71.1621542 C-319.66296631 71.17277903 -318.73120128 71.18340386 -317.77120095 71.19435066 C-316.74059334 71.20098749 -315.70998573 71.20762433 -314.64814758 71.21446228 C-313.01374616 71.2305608 -313.01374616 71.2305608 -311.34632653 71.24698454 C-307.67011965 71.28160041 -303.99389763 71.30876079 -300.31762695 71.33569336 C-297.69145503 71.35831579 -295.06528522 71.38118431 -292.43911743 71.40428162 C-268.42431573 71.6091135 -244.40866265 71.71868504 -220.39318562 71.80750179 C-217.17675503 71.81960936 -213.96032541 71.83194299 -210.74389648 71.84448242 C-209.94448677 71.84758927 -209.14507706 71.85069611 -208.32144281 71.8538971 C-195.39492846 71.90563991 -182.46936198 72.0097659 -169.54336617 72.13427465 C-156.26222753 72.2611372 -142.98158013 72.33446518 -129.69985169 72.35790926 C-122.24661369 72.37252319 -114.79515113 72.41097006 -107.34252357 72.51078606 C-100.9891511 72.59587166 -94.63775488 72.63282626 -88.28382043 72.60853248 C-85.04570214 72.5976435 -81.81273841 72.61645256 -78.57515144 72.6823349 C-62.69861072 73.23834881 -62.69861072 73.23834881 -49.09982604 66.09908921 C-46.70820707 63.72840861 -44.5066958 61.2635003 -42.38487375 58.64979374 C-40.46091269 56.35778777 -38.27122615 54.44062741 -36 52.5 C-31.77599384 48.7265545 -27.63379463 44.87152662 -23.5 41 C-7.05411447 25.60796846 -7.05411447 25.60796846 -3.27734375 23.4296875 C0.34370589 19.56640641 -0.21811551 15.35938868 -0.1875 10.25 C-0.16236328 9.26644531 -0.13722656 8.28289062 -0.11132812 7.26953125 C-0.05250339 4.84595234 -0.01619081 2.42417722 0 0 Z " fill="#0C5D38" transform="translate(443,64)"/>
<path d="M0 0 C-0.03254883 0.97235596 -0.06509766 1.94471191 -0.09863281 2.9465332 C-0.20474874 6.60556244 -0.22967429 10.2616758 -0.23193359 13.92211914 C-0.24383138 15.4963245 -0.27683165 17.07053378 -0.33251953 18.64379883 C-0.81143119 28.74184323 -0.81143119 28.74184323 3.61523438 37.43701172 C6.52403178 40.27973607 9.69600092 42.63600657 13 45 C14.34738575 46.15040885 15.68494067 47.31277304 17 48.5 C17.61359375 49.03109375 18.2271875 49.5621875 18.859375 50.109375 C22.22012452 53.07762823 25.50605837 56.12778018 28.7890625 59.18164062 C34.30692122 64.66940926 34.30692122 64.66940926 41.52198124 66.39986992 C42.4288446 66.41262675 43.33570795 66.42538358 44.27005202 66.43852699 C45.26254389 66.43729178 46.25503576 66.43605657 47.27760315 66.43478394 C48.33498324 66.44510843 49.39236333 66.45543293 50.48178524 66.46607029 C54.03681946 66.49685024 57.5915774 66.50602914 61.14672852 66.51513672 C63.69102251 66.532293 66.23530889 66.55061114 68.77958679 66.57000732 C76.42354598 66.62297151 84.06744754 66.65017517 91.71154752 66.67285842 C95.31387516 66.68420891 98.91618978 66.69873122 102.518507 66.71295547 C114.49830312 66.75917214 126.47808801 66.79845613 138.45796299 66.81632805 C141.56580676 66.82103771 144.67365052 66.82575741 147.78149414 66.83056641 C148.55390656 66.83175532 149.32631898 66.83294423 150.12213784 66.83416916 C162.62753226 66.85470553 175.13218594 66.92280687 187.63726736 67.01108728 C200.48457712 67.1010438 213.33151225 67.14943521 226.17913955 67.15698445 C233.38930744 67.1622238 240.59842863 67.18533922 247.80829048 67.25472641 C254.59435807 67.31986428 261.37819014 67.32838178 268.16461372 67.29906464 C270.65145882 67.2973042 273.13840055 67.31427807 275.62496567 67.35163498 C290.00792623 68.13987093 290.00792623 68.13987093 302.4207229 62.1547004 C304.48481944 59.91218929 306.23760902 57.48292542 308 55 C309.34865753 53.72666927 310.72883046 52.48432929 312.16015625 51.3046875 C316.37188129 47.70200304 320.40604808 43.92726407 324.4375 40.125 C325.15615234 39.44953125 325.87480469 38.7740625 326.61523438 38.078125 C331.95718268 33.52298382 331.95718268 33.52298382 333.26576233 27.00779724 C333.28247482 26.31299759 333.29918732 25.61819794 333.31640625 24.90234375 C333.3475779 23.83905602 333.3475779 23.83905602 333.37937927 22.75428772 C333.44494598 20.48212695 333.5037923 18.20984736 333.5625 15.9375 C333.60567849 14.40037817 333.64929255 12.8632685 333.69335938 11.32617188 C333.80063449 7.5509041 333.90188137 3.7755164 334 0 C337.79041886 0.83049926 340.42522898 2.37451501 343.6875 4.5 C344.66074219 5.1290625 345.63398438 5.758125 346.63671875 6.40625 C349 8 349 8 350 9 C352.64518547 29.96932227 352.64518547 29.96932227 348.05078125 36.5703125 C345.50845174 39.0542424 342.95541732 41.0325608 340 43 C338.69152547 44.12660162 337.39847966 45.27148698 336.125 46.4375 C335.48820312 46.98277344 334.85140625 47.52804688 334.1953125 48.08984375 C331.41577992 50.50833385 328.708549 53.0028069 326 55.5 C322.69992789 58.53911004 319.39050049 61.56156625 316 64.5 C310.22642203 69.50458133 304.40395969 74.59604031 299 80 C297.60278908 80.1098918 296.20011816 80.15124717 294.79865932 80.16494751 C293.88691903 80.17618904 292.97517873 80.18743057 292.03580993 80.19901276 C291.02242634 80.20633171 290.00904275 80.21365067 288.96495056 80.22119141 C287.89732737 80.23262932 286.82970417 80.24406723 285.72972876 80.25585175 C282.12185146 80.29286915 278.51395414 80.32233539 274.90600586 80.3515625 C272.33086431 80.37581723 269.75572498 80.40030796 267.18058777 80.42501831 C243.61526497 80.64448549 220.04899543 80.76305434 196.48288631 80.85931396 C193.32542251 80.87244145 190.16795986 80.88581636 187.01049805 80.89941406 C186.22573822 80.90278322 185.44097838 80.90615237 184.63243795 80.90962362 C171.94894827 80.9656858 159.26656366 81.07766933 146.58368152 81.21142745 C133.55230979 81.34771337 120.52151049 81.4265378 107.48944575 81.45199776 C100.17631002 81.46785127 92.86525632 81.50922477 85.55283928 81.61651611 C78.66146516 81.71762504 71.77346186 81.7416276 64.8814106 81.7149086 C62.36108892 81.71742558 59.84063509 81.74537233 57.32093811 81.80154037 C36.34421 82.24516338 36.34421 82.24516338 27.91043144 74.85547638 C25.36996054 72.33023523 23.02424574 69.69202964 20.72786152 66.94450378 C17.78194818 63.62922674 14.37756657 60.86047004 11 58 C8.85649831 56.06137015 6.74030763 54.09430992 4.625 52.125 C0.57930464 48.37710374 -3.47434972 44.63917817 -7.5625 40.9375 C-8.32691406 40.24527344 -9.09132813 39.55304688 -9.87890625 38.83984375 C-11.90798274 36.97857434 -11.90798274 36.97857434 -14.07739258 35.7253418 C-17.3158766 32.81913652 -16.83307854 29.45293138 -17.06298828 25.30053711 C-17.32191134 10.99758657 -17.32191134 10.99758657 -14.640625 6.94580078 C-10.85501593 3.3935363 -5.30999486 0 0 0 Z " fill="#0C5D38" transform="translate(85,50)"/>
<path d="M0 0 C3.89006773 1.38780795 6.96558708 3.2152227 10.3125 5.625 C11.19550781 6.25664063 12.07851563 6.88828125 12.98828125 7.5390625 C13.98408203 8.26222656 13.98408203 8.26222656 15 9 C10.96907857 13.98561335 6.64356838 18.24018852 1.83984375 22.48046875 C-1.31376755 25.27837698 -4.4094501 28.13291785 -7.5 31 C-12.12300148 35.28030806 -16.78093425 39.51759585 -21.47265625 43.72265625 C-24.33082184 46.29809758 -27.16712083 48.89683799 -30 51.5 C-33.62743489 54.83328749 -37.26893076 58.14946307 -40.9375 61.4375 C-45.33412982 65.38246962 -49.67940312 69.38038492 -54.00756836 73.40014648 C-55.03520052 74.35269448 -56.07949435 75.28753649 -57.13847351 76.20510864 C-59.08024591 77.96684663 -59.08024591 77.96684663 -60.5932312 80.24143982 C-64.64110937 85.16342957 -68.06921745 87.14444353 -74.32611084 87.83084106 C-81.39364084 88.26636851 -88.46209091 88.16762897 -95.5390625 88.09765625 C-98.27194796 88.09871681 -101.00471952 88.11349658 -103.73756409 88.12770081 C-110.38404165 88.15411325 -117.02955345 88.13334141 -123.67594665 88.09605914 C-131.43132173 88.0541008 -139.18649244 88.05568451 -146.94195783 88.06060362 C-157.48890236 88.0668756 -168.03575004 88.06335165 -178.58265686 88.03320312 C-199.85283356 87.97500204 -221.1171105 88.06713727 -242.38630247 88.27597469 C-253.17717967 88.38082476 -263.96829934 88.45250026 -274.75946045 88.52104282 C-282.75960778 88.57290668 -290.75914197 88.63908634 -298.7588501 88.73855591 C-305.57433963 88.82303455 -312.38920043 88.87603578 -319.20521516 88.88917214 C-322.68504427 88.89686564 -326.16311537 88.91929274 -329.64242744 88.98184395 C-333.42317213 89.04221621 -337.20007731 89.04677267 -340.98120117 89.03759766 C-342.07571405 89.06838944 -343.17022694 89.09918123 -344.29790688 89.13090611 C-350.494812 89.04704225 -353.56932729 88.07869673 -358.01679993 83.6421814 C-359.35310476 82.10218372 -360.68146962 80.55524309 -362 79 C-363.22744997 77.87081862 -364.4738298 76.76131267 -365.75 75.6875 C-369.36917159 72.58020328 -372.8779394 69.3679769 -376.375 66.125 C-381.04190893 61.79980055 -385.74281494 57.51734686 -390.48046875 53.26953125 C-395.87037666 48.41443591 -401.19951805 43.49220458 -406.54101562 38.58398438 C-412.48895444 33.11974071 -418.45397145 27.67637441 -424.46484375 22.28125 C-428.99349429 18.2061623 -433.4956287 14.10188945 -438 10 C-434.90081787 6.80690326 -431.81446409 4.32184771 -428 2 C-427.34 2 -426.68 2 -426 2 C-425.979375 3.010625 -425.95875 4.02125 -425.9375 5.0625 C-425.1922976 10.20646656 -421.77563972 12.73955479 -418 16 C-417.41089844 16.51949219 -416.82179688 17.03898437 -416.21484375 17.57421875 C-414.93172761 18.69932908 -413.64355569 19.81868843 -412.3515625 20.93359375 C-409.43994753 23.49213913 -406.59366504 26.1164045 -403.75 28.75 C-403.19304443 29.26578613 -402.63608887 29.78157227 -402.06225586 30.31298828 C-400.92897495 31.36272657 -399.79575561 32.41253133 -398.66259766 33.46240234 C-396.09486847 35.83708053 -393.5169073 38.20052051 -390.9375 40.5625 C-390.44813965 41.01061035 -389.9587793 41.4587207 -389.45458984 41.92041016 C-388.46731251 42.82441138 -387.48000786 43.72838278 -386.49267578 44.63232422 C-384.97185124 46.02579152 -383.45252676 47.42087751 -381.93359375 48.81640625 C-373.83360049 56.29585879 -373.83360049 56.29585879 -365.5728817 63.59532452 C-363 66 -363 66 -361.05085182 68.57591724 C-356.74686507 73.72892413 -353.18649694 76.12109722 -346.57304001 76.9307766 C-339.48082023 77.43117552 -332.38785516 77.34138786 -325.28271484 77.27807617 C-322.5468835 77.28449198 -319.81121197 77.30581847 -317.07545471 77.3263092 C-310.43270868 77.36679303 -303.79112015 77.35367666 -297.14837144 77.32115778 C-291.7481639 77.29578085 -286.3482744 77.29043373 -280.94801712 77.29921913 C-279.79266178 77.30108454 -279.79266178 77.30108454 -278.61396594 77.30298764 C-277.04899131 77.30561273 -275.48401676 77.30828916 -273.9190423 77.31101636 C-259.26592853 77.33432482 -244.61345065 77.29724942 -229.96046574 77.23879681 C-217.39883934 77.19001681 -204.8380226 77.19078124 -192.27636719 77.22827148 C-177.67064353 77.27182701 -163.0653849 77.28633633 -148.45961726 77.25349981 C-146.90119535 77.25006284 -145.34277338 77.24665626 -143.78435135 77.24328041 C-143.01767586 77.24159694 -142.25100037 77.23991348 -141.46109229 77.23817899 C-136.06896875 77.22827274 -130.67710887 77.23882572 -125.28501511 77.25722313 C-118.71146147 77.27901692 -112.13889715 77.2683398 -105.56549548 77.21664437 C-102.21361387 77.19106522 -98.86465082 77.18448507 -95.51254845 77.20743179 C-91.87346893 77.22981859 -88.23893862 77.19667921 -84.60018921 77.14958191 C-83.54833352 77.16897628 -82.49647784 77.18837066 -81.41274774 77.20835274 C-75.33921207 77.05953352 -72.36081572 75.97735033 -68.00936317 71.63518238 C-66.66530042 70.09673559 -65.32829429 68.55208166 -64 67 C-62.77194495 65.87147671 -61.52549006 64.76212047 -60.25 63.6875 C-56.67663079 60.61752209 -53.20559634 57.45092016 -49.75 54.25 C-48.91650024 53.47825439 -48.91650024 53.47825439 -48.06616211 52.69091797 C-46.93447278 51.64284619 -45.80288126 50.59466879 -44.67138672 49.54638672 C-37.68635291 43.083751 -30.65378338 36.6749375 -23.5703125 30.3203125 C-21.70349419 28.63506922 -19.84412758 26.94362071 -17.9921875 25.2421875 C-17.47825439 24.77031006 -16.96432129 24.29843262 -16.43481445 23.81225586 C-15.40183714 22.8604422 -14.37167844 21.90555971 -13.34448242 20.94750977 C-11.12720873 18.8900852 -8.90562415 16.92829791 -6.49609375 15.09765625 C-2.34526204 11.98068955 -2.34526204 11.98068955 -0.29296875 7.3515625 C-0.03227784 4.86978499 0.08023277 2.49223055 0 0 Z " fill="#0C5D38" transform="translate(464,78)"/>
<path d="M0 0 C-0.06453369 1.94265747 -0.06453369 1.94265747 -0.13037109 3.92456055 C-0.27284293 8.78727441 -0.32068729 13.64733468 -0.34179688 18.51196289 C-0.3636933 20.60613039 -0.41034637 22.7002054 -0.48339844 24.79321289 C-1.2408413 37.79109062 -1.2408413 37.79109062 3.99902344 49.18212891 C6.79063465 51.97691225 9.78643724 54.39468058 13.05551147 56.60896301 C15 58 15 58 17.48898697 60.54641628 C21.67128199 64.01501275 25.88590945 63.70255197 31.12069702 63.64837646 C32.64512686 63.66219309 32.64512686 63.66219309 34.20035326 63.67628884 C37.60444642 63.70090776 41.00747079 63.68980048 44.41162109 63.67871094 C46.85270601 63.68876066 49.29378307 63.70090764 51.73484802 63.71499634 C57.67645344 63.74310034 63.61779128 63.7475669 69.55943249 63.73998317 C74.39001097 63.73415484 79.22050313 63.73735654 84.05107498 63.74695587 C84.73901721 63.74829948 85.42695943 63.74964309 86.13574839 63.75102742 C87.53338636 63.7537707 88.9310243 63.75652318 90.32866223 63.75928476 C103.43162064 63.78388133 116.53441511 63.77628765 129.63737483 63.75871471 C141.61747547 63.74361595 153.5971161 63.76780385 165.57713728 63.81074712 C177.88550702 63.8545315 190.19366114 63.8723771 202.50210822 63.86197114 C209.40947105 63.85656931 216.31646458 63.86126707 223.22376633 63.89293671 C229.71971737 63.92238178 236.2149948 63.91510956 242.71093941 63.88322067 C245.09416927 63.87716341 247.47746393 63.88303018 249.86062813 63.90172958 C253.11656816 63.92537316 256.36951526 63.90579683 259.62533569 63.87542725 C260.56678637 63.89240654 261.50823704 63.90938583 262.47821653 63.92687964 C268.73051834 63.80589266 271.85286935 62.20746835 276.28895915 57.80221581 C276.85360263 57.2074846 277.41824611 56.61275338 278 56 C279.1056748 54.96328711 280.21658105 53.93208164 281.3359375 52.91015625 C282.87843657 51.46774299 284.41747027 50.02219013 285.94921875 48.56835938 C289.77988471 45 289.77988471 45 292 45 C292 30.48 292 15.96 292 1 C301 6 301 6 305 9 C305.45576964 11.7597043 305.65537727 14.11859071 305.671875 16.88671875 C305.6918454 18.05047783 305.6918454 18.05047783 305.71221924 19.23774719 C305.73246644 20.88097668 305.74185344 22.52437051 305.74121094 24.16772461 C305.74991618 26.66346944 305.82237572 29.15200377 305.8984375 31.64648438 C306.06201553 43.24833444 306.06201553 43.24833444 303.29125977 47.81835938 C301.2961118 49.82801332 299.33525192 51.40894622 297 53 C295.80138847 54.02886156 294.61209729 55.06880547 293.4375 56.125 C292.79425781 56.67800781 292.15101563 57.23101562 291.48828125 57.80078125 C287.9736557 60.90711435 284.55145492 64.10950071 281.125 67.3125 C280.45782959 67.93592285 279.79065918 68.5593457 279.10327148 69.20166016 C275.51426541 72.56206064 275.51426541 72.56206064 272 76 C270.13445425 76.258753 270.13445425 76.258753 267.81502533 76.27123547 C266.49112895 76.28553405 266.49112895 76.28553405 265.14048719 76.30012149 C263.67700621 76.30059158 263.67700621 76.30059158 262.18395996 76.30107117 C260.63614672 76.31315958 260.63614672 76.31315958 259.05706453 76.3254922 C255.57644103 76.34998866 252.09592784 76.35995382 248.61523438 76.36987305 C246.12872901 76.38403343 243.64222784 76.39894879 241.1557312 76.41456604 C233.6755634 76.45781196 226.19541984 76.48355556 218.71516681 76.5053539 C215.89782066 76.51380674 213.0804789 76.523403 210.26313648 76.53300887 C197.84257682 76.57519195 185.42201374 76.61112936 173.00139618 76.63057232 C169.96024059 76.6354119 166.91908507 76.64029388 163.87792969 76.64526367 C163.12206764 76.64649346 162.3662056 76.64772325 161.58743864 76.64899031 C149.35295306 76.66992769 137.11895009 76.72845895 124.88468331 76.80264618 C112.32108767 76.8782063 99.75773793 76.91972375 87.19391489 76.92813712 C80.14093698 76.93371024 73.08868939 76.95413134 66.03593445 77.01270103 C59.39717928 77.0677258 52.75947963 77.07661098 46.1204567 77.05455589 C43.68642221 77.05383954 41.25232637 77.06847708 38.81849289 77.09976578 C18.13103919 77.35101643 18.13103919 77.35101643 11.69055176 71.63337708 C10.41506089 70.12611824 9.17813682 68.58451879 8 67 C6.86724854 65.91248244 5.71543795 64.84377068 4.53125 63.8125 C3.02347299 62.41542055 1.51757853 61.01633281 0.01171875 59.6171875 C-0.49746094 59.14539063 -1.00664063 58.67359375 -1.53125 58.1875 C-2.3190686 57.42663086 -2.3190686 57.42663086 -3.12280273 56.65039062 C-5.04276357 54.88977237 -5.04276357 54.88977237 -7.58227539 53.27148438 C-11.9383647 50.10059054 -14.99179208 47.36415881 -16.00927734 41.95703125 C-16.48677644 37.97008901 -16.54130383 34.01868937 -16.46850586 30.00732422 C-16.43746677 27.49731284 -16.52926074 25.01164598 -16.63085938 22.50390625 C-16.77722706 11.26286804 -16.77722706 11.26286804 -13.6819458 7.32177734 C-10.14111741 4.0570026 -4.96692271 0 0 0 Z " fill="#0C5D38" transform="translate(107,35)"/>
<path d="M0 0 C0 17.82 0 35.64 0 54 C1.32 54.66 2.64 55.32 4 56 C4.66 56.66 5.32 57.32 6 58 C7.85948559 58.30401654 7.85948559 58.30401654 10.0143261 58.25726891 C10.85882313 58.2637178 11.70332016 58.27016669 12.57340801 58.276811 C13.50646333 58.2737138 14.43951866 58.2706166 15.40084839 58.26742554 C16.38795465 58.27195665 17.3750609 58.27648776 18.39207947 58.28115618 C21.7209057 58.29388121 25.04957002 58.29217461 28.37841797 58.29052734 C30.7564312 58.29650754 33.13444248 58.3033119 35.51245117 58.31088257 C41.31416163 58.32675875 47.11582243 58.33299321 52.91755353 58.33410732 C57.63239027 58.3350567 62.34721356 58.33916146 67.06204605 58.34550858 C80.4216558 58.36312796 93.78123337 58.37234641 107.14085482 58.37084763 C107.86152605 58.37076772 108.58219728 58.3706878 109.32470703 58.37060547 C110.04625556 58.37052371 110.76780409 58.37044195 111.51121773 58.37035771 C123.20639001 58.36954471 134.90143353 58.38868382 146.59656857 58.4168822 C158.5973921 58.4455899 170.59815279 58.45942365 182.59901154 58.45769465 C189.33966196 58.45702999 196.08017742 58.46255528 202.82079697 58.48405075 C209.15895885 58.50335594 215.496835 58.50361051 221.83500671 58.48901749 C224.16509033 58.48691867 226.49519147 58.49169359 228.8252449 58.5037384 C231.99889839 58.51908506 235.17155364 58.50995251 238.34518433 58.49447632 C239.73807515 58.50990701 239.73807515 58.50990701 241.15910518 58.52564943 C246.24125599 58.54577271 246.24125599 58.54577271 250.47842598 55.96909523 C250.98054541 55.3192938 251.48266483 54.66949238 252 54 C252.66 54 253.32 54 254 54 C254 36.84 254 19.68 254 2 C258.58623941 3.14655985 261.85299108 4.39453793 265 8 C266.108673 11.4195862 266.1468099 14.73660752 266.17578125 18.3125 C266.19908005 19.31780762 266.22237885 20.32311523 266.24638367 21.35888672 C266.28178145 23.48691474 266.29824456 25.61533024 266.29711914 27.74365234 C266.31234572 30.96733762 266.43903875 34.17385179 266.57226562 37.39453125 C266.87256101 53.36683138 266.87256101 53.36683138 261.89599609 59.328125 C258.55418392 62.68587902 254.94248093 65.38467071 251 68 C249.515 68.99 249.515 68.99 248 70 C246.08128005 70.26680768 246.08128005 70.26680768 243.86491108 70.29078865 C243.0188566 70.30463793 242.17280211 70.31848721 241.30110961 70.33275616 C239.9065012 70.34038851 239.9065012 70.34038851 238.48371887 70.34817505 C237.00222738 70.3676719 237.00222738 70.3676719 235.49080676 70.38756263 C232.1655346 70.42847409 228.84031149 70.45482584 225.51489258 70.48095703 C223.1364931 70.50657551 220.75810056 70.53284636 218.37971497 70.5597229 C210.5514415 70.64328886 202.72305403 70.7038921 194.89453125 70.7578125 C193.89500288 70.76473524 193.89500288 70.76473524 192.87528202 70.77179784 C179.63082965 70.86274132 166.38631008 70.9397278 153.14165211 70.99325752 C150.22928088 71.00523489 147.31691056 71.01740626 144.40454102 71.02978516 C143.68072448 71.03285112 142.95690795 71.03591708 142.21115758 71.03907596 C130.51054688 71.09039845 118.81138558 71.20405695 107.11151866 71.34271576 C95.08351814 71.48407745 83.05626352 71.56418933 71.02744597 71.58675659 C64.27977934 71.6010255 57.53462488 71.64204024 50.7877903 71.75281143 C44.42963382 71.85418532 38.07563238 71.87875947 31.71679497 71.84630966 C29.39318336 71.8475108 27.06939028 71.87576447 24.74651337 71.9342041 C13.75785857 72.19602297 5.17774436 72.15406307 -3.25809604 64.44611442 C-8.88409449 58.68865475 -13.79027376 53.467061 -14.06924438 45.02279663 C-14.01803436 44.07425812 -13.96682434 43.1257196 -13.9140625 42.1484375 C-13.91567886 40.60562607 -13.91567886 40.60562607 -13.91732788 39.03164673 C-13.90212088 36.89206091 -13.84838442 34.75240555 -13.75634766 32.61474609 C-13.62356503 29.33960576 -13.63326468 26.08594277 -13.66015625 22.80859375 C-13.6280597 20.71339869 -13.58798648 18.61830718 -13.5390625 16.5234375 C-13.54048248 15.55465668 -13.54190247 14.58587585 -13.54336548 13.58773804 C-13.3831223 10.72565472 -13.14519756 8.63296478 -12 6 C-8.69145731 3.09227058 -4.55930068 0 0 0 Z " fill="#0C5D38" transform="translate(126,23)"/>
<path d="M0 0 C84.48 0 168.96 0 256 0 C253.8797341 4.24053179 251.333216 6.72035641 247.875 9.8125 C247.28460938 10.34875 246.69421875 10.885 246.0859375 11.4375 C242.47921922 14.70411107 238.82875469 17.91816578 235.1484375 21.1015625 C231.68573391 24.16133331 228.30936359 27.3141355 224.92016602 30.45483398 C220.82287931 34.24901264 216.68580657 37.99554128 212.52734375 41.72265625 C209.66917797 44.29809775 206.83289739 46.89685764 204 49.5 C199.54667383 53.59169207 195.06340112 57.64822977 190.5625 61.6875 C187.69399555 64.27615036 184.84527019 66.88589108 182 69.5 C175.90012856 75.10303176 169.74438837 80.64212914 163.578125 86.171875 C159.02949626 90.25694922 154.50274563 94.36441567 150 98.5 C146.19758845 101.9903688 142.38968804 105.47426446 138.5625 108.9375 C137.80066406 109.62714844 137.03882813 110.31679688 136.25390625 111.02734375 C133.89202775 113.09449911 131.46460359 115.05700563 129 117 C125.13223685 115.39606978 122.3734642 112.77367619 119.375 109.9375 C118.2998624 108.93578643 117.22433615 107.93448985 116.1484375 106.93359375 C115.61573242 106.43585449 115.08302734 105.93811523 114.53417969 105.42529297 C112.37967978 103.42370633 110.19146319 101.46096949 108 99.5 C104.3116951 96.18998278 100.64934235 92.852855 97 89.5 C91.69878077 84.63056955 86.35895189 79.80576976 81 75 C75.12245558 69.72916984 69.27500173 64.42768328 63.46142578 59.08642578 C60.32368887 56.20606171 57.16996182 53.34483753 54 50.5 C49.79315673 46.72462783 45.62325147 42.91019552 41.4609375 39.0859375 C37.52170429 35.46992343 33.5505662 31.89102241 29.5703125 28.3203125 C26.65571393 25.68920072 23.76471675 23.03335866 20.875 20.375 C15.66037671 15.58262677 10.41854383 10.82373027 4.95703125 6.3125 C3.98830078 5.508125 3.98830078 5.508125 3 4.6875 C2.4225 4.21699219 1.845 3.74648437 1.25 3.26171875 C0 2 0 2 0 0 Z M17 7 C18.65 8.65 20.3 10.3 22 12 C22.71800781 12.72960937 23.43601563 13.45921875 24.17578125 14.2109375 C24.88089844 14.92507812 25.58601563 15.63921875 26.3125 16.375 C27.00988281 17.08398438 27.70726562 17.79296875 28.42578125 18.5234375 C31.17277298 21.16621861 34.02357134 23.6543208 36.90112305 26.15283203 C40.25787524 29.10702385 43.50100633 32.17837075 46.75 35.25 C53.4495214 41.55708081 60.20304042 47.79812306 67 54 C68.97971935 55.81190208 70.95904849 57.62421515 72.9375 59.4375 C73.43096924 59.88971924 73.92443848 60.34193848 74.43286133 60.80786133 C79.75371511 65.68667761 85.05668335 70.58482088 90.35888672 75.48388672 C93.61011311 78.48747432 96.86281922 81.48946019 100.1159668 84.4909668 C102.87653962 87.03832296 105.63521765 89.58768157 108.390625 92.140625 C114.53435983 97.8292355 120.70928326 103.47327211 127 109 C130.39344442 107.51151188 132.78229967 105.5673138 135.5 103.0625 C136.3765625 102.25941406 137.253125 101.45632813 138.15625 100.62890625 C139.0946875 99.76136719 140.033125 98.89382813 141 98 C142.49184018 96.63033639 143.98516643 95.26230509 145.47851562 93.89428711 C146.49858821 92.95949337 147.51811373 92.02410233 148.53710938 91.08813477 C152.47924868 87.46840795 156.4544411 83.88704004 160.4375 80.3125 C163.30600409 77.72384997 166.1547665 75.11414854 169 72.5 C173.45335487 68.40833893 177.93659854 64.35177054 182.4375 60.3125 C185.30600409 57.72384997 188.1547665 55.11414854 191 52.5 C195.45335487 48.40833893 199.93659854 44.35177054 204.4375 40.3125 C207.30600445 37.72384964 210.15472981 35.11410892 213 32.5 C219.22226155 26.7845469 225.48457847 21.11449723 231.80859375 15.51171875 C233.17177734 14.29935547 233.17177734 14.29935547 234.5625 13.0625 C235.38878906 12.33160156 236.21507812 11.60070312 237.06640625 10.84765625 C239.07010189 9.14121418 239.07010189 9.14121418 240 7 C166.41 7 92.82 7 17 7 Z " fill="#0C5D38" transform="translate(127,200)"/>
<path d="M0 0 C11.67507811 -1.36265321 11.67507811 -1.36265321 16.69921875 1.58203125 C19.27350125 3.94356313 21.62801567 6.43549627 24 9 C26.09091936 10.99597072 28.23460692 12.93236063 30.375 14.875 C31.48673223 15.90120184 32.59740848 16.92854883 33.70703125 17.95703125 C36.81782841 20.83394762 39.93798345 23.70049617 43.0625 26.5625 C43.55347168 27.01222168 44.04444336 27.46194336 44.55029297 27.92529297 C45.53884515 28.83062602 46.52745177 29.73589963 47.51611328 30.64111328 C50.01164407 32.92642496 52.50574527 35.2132958 55 37.5 C55.99999325 38.41667404 56.99999324 39.3333407 58 40.25 C64 45.75 64 45.75 65.50073242 47.12573242 C66.49820991 48.04004618 67.49576818 48.95427181 68.4934082 49.8684082 C71.03268091 52.19534911 73.57042141 54.52392474 76.10546875 56.85546875 C82.02115296 62.29308963 87.97162014 67.68710967 94 73 C96.86994188 71.68120833 99.08745747 70.22904698 101.4375 68.125 C102.12972656 67.50625 102.82195312 66.8875 103.53515625 66.25 C107.06250958 63.03010219 110.57411526 59.79341358 114.07763672 56.54760742 C118.17523594 52.75215441 122.31338102 49.00518686 126.47265625 45.27734375 C129.33082203 42.70190225 132.16710261 40.10314236 135 37.5 C139.45332617 33.40830793 143.93659888 29.35177023 148.4375 25.3125 C151.30600552 22.72384868 154.1546196 20.11398987 157 17.5 C160.82424581 13.98994126 164.65289223 10.48502704 168.5 7 C169.2734375 6.29875 170.046875 5.5975 170.84375 4.875 C171.5553125 4.25625 172.266875 3.6375 173 3 C173.92039062 2.13955078 173.92039062 2.13955078 174.859375 1.26171875 C177.88517852 -0.52173843 180.27219682 -0.2918341 183.75 -0.1875 C184.92046875 -0.16042969 186.0909375 -0.13335937 187.296875 -0.10546875 C188.18890625 -0.07066406 189.0809375 -0.03585938 190 0 C188.65482741 3.0746802 187.27093546 4.87571902 184.6875 7 C180.90583893 10.19828323 177.25212032 13.50439081 173.625 16.875 C168.12911915 21.96860829 162.58296186 27.00183284 157 32 C151.64060582 36.80527265 146.30128222 41.63064912 141 46.5 C134.90004921 52.10294652 128.74438953 57.6421281 122.578125 63.171875 C117.96356165 67.31616438 113.3760681 71.48728237 108.8125 75.6875 C104.61505309 79.54928463 100.36561082 83.32891818 96 87 C93.07356763 85.67143806 90.9299237 84.20435823 88.609375 81.98828125 C87.98659668 81.39901855 87.36381836 80.80975586 86.72216797 80.20263672 C86.07135254 79.5788916 85.42053711 78.95514648 84.75 78.3125 C83.39407871 77.02904981 82.03731778 75.74648604 80.6796875 74.46484375 C80.03612305 73.85624512 79.39255859 73.24764648 78.72949219 72.62060547 C76.81523616 70.82686866 74.86342645 69.08607083 72.875 67.375 C68.79716368 63.86451482 64.86574736 60.20150074 60.91967773 56.54467773 C56.8252121 52.75319901 52.6914128 49.00889179 48.53515625 45.28515625 C45.63086734 42.66726871 42.75229225 40.02246797 39.875 37.375 C36.63788971 34.39775181 33.3886208 31.44046979 30.0625 28.5625 C25.93723807 24.98612947 21.94085893 21.27508088 17.94018555 17.56079102 C13.69163788 13.62071058 9.37981472 9.7583757 5.0234375 5.9375 C3.08562027 4.08198389 1.53709319 2.19305016 0 0 Z " fill="#0C5D38" transform="translate(160,213)"/>
<path d="M0 0 C11.12096838 -1.22059409 11.12096838 -1.22059409 15.36328125 1.53515625 C17.3125 3.5625 17.3125 3.5625 18.92578125 5.56640625 C21.345625 8.4055073 24.0324934 10.70983043 26.85717773 13.13745117 C30.2878282 16.11938491 33.5735461 19.25163114 36.875 22.375 C42.02459777 27.22548549 47.20249274 32.03190781 52.48828125 36.734375 C54.46482425 38.51725982 56.41538549 40.31863376 58.35546875 42.140625 C58.93852783 42.68630127 59.52158691 43.23197754 60.12231445 43.79418945 C61.26377404 44.86441713 62.40182034 45.9383007 63.53588867 47.01635742 C66.19338215 49.50316736 68.60086192 51.6288501 72 53 C72.4846875 52.50371094 72.969375 52.00742187 73.46875 51.49609375 C77.41079754 47.50098018 81.43165302 43.69241227 85.68359375 40.03125 C88.58549173 37.48658398 91.41852662 34.87251928 94.25 32.25 C94.80558594 31.7355835 95.36117187 31.22116699 95.93359375 30.69116211 C97.06536145 29.6430057 98.19703438 28.59474695 99.32861328 27.54638672 C113.65568566 14.29081026 113.65568566 14.29081026 120.77734375 8.015625 C122.97828417 6.07788431 122.97828417 6.07788431 124.75390625 4.109375 C127.50533601 1.27175588 129.08266048 0.10758206 133.09765625 -0.36328125 C136.09111841 -0.37378463 139.01920922 -0.26430657 142 0 C140.40225465 4.20406744 137.27032414 6.76825135 134 9.6875 C133.41694092 10.21641846 132.83388184 10.74533691 132.2331543 11.2902832 C130.49379584 12.86587012 128.74753361 14.4334919 127 16 C126.09894531 16.8146875 125.19789063 17.629375 124.26953125 18.46875 C121.85181388 20.65199875 119.42706978 22.82715684 117 25 C111.12197061 30.27028483 105.27499615 35.57232185 99.46142578 40.91357422 C95.52999315 44.52253112 91.57251565 48.10051196 87.5859375 51.6484375 C85.63988454 53.41811103 83.73897378 55.2087417 81.8515625 57.0390625 C81.3153125 57.55146484 80.7790625 58.06386719 80.2265625 58.59179688 C79.17765408 59.59593481 78.13812887 60.6099889 77.109375 61.63476562 C73.56268384 65.00412223 73.56268384 65.00412223 70.8671875 64.984375 C68.78449487 63.88638642 67.23793658 62.71810853 65.5 61.125 C64.45972656 60.18140625 64.45972656 60.18140625 63.3984375 59.21875 C62.21121094 58.12046875 62.21121094 58.12046875 61 57 C59.55406169 55.67754403 58.10812056 54.35509113 56.66210938 53.03271484 C55.10860635 51.60998638 53.55807353 50.1840721 52.0078125 48.7578125 C49.3547174 46.32033402 46.68182198 43.90587888 44 41.5 C40.3116951 38.18998278 36.64934235 34.852855 33 31.5 C28.50422788 27.37041231 23.98504839 23.2682858 19.44140625 19.19140625 C17.75906498 17.68133672 16.07954003 16.16812565 14.40234375 14.65234375 C13.54769531 13.88019531 12.69304687 13.10804688 11.8125 12.3125 C10.99652344 11.57515625 10.18054688 10.8378125 9.33984375 10.078125 C7.21859501 8.19414448 5.05891436 6.37290788 2.875 4.5625 C1.92625 3.716875 0.9775 2.87125 0 2 C0 1.34 0 0.68 0 0 Z " fill="#0C5D38" transform="translate(184,213)"/>
<path d="M0 0 C9.22587327 -1.22107146 9.22587327 -1.22107146 13.23046875 1.53515625 C15.24466302 3.62171678 17.11486785 5.79680029 19 8 C20.33130194 9.21307822 21.68537388 10.40170404 23.0625 11.5625 C26.2702112 14.32000612 29.24847621 17.22561733 32.2109375 20.2421875 C34.74812236 22.73505472 37.43941096 25.03411295 40.1328125 27.35546875 C42.53512038 29.47130895 44.77208834 31.7024661 47 34 C50.00210439 32.64563311 52.16415175 31.11315928 54.5390625 28.83984375 C55.19704834 28.21537354 55.85503418 27.59090332 56.53295898 26.94750977 C57.22333252 26.28420654 57.91370605 25.62090332 58.625 24.9375 C60.0657193 23.56958862 61.50712386 22.20239861 62.94921875 20.8359375 C63.6457959 20.17432617 64.34237305 19.51271484 65.06005859 18.83105469 C68.24438169 15.82546405 71.48846385 12.89448836 74.78125 10.0078125 C77.05206365 8.00143184 77.05206365 8.00143184 79.21875 5.6796875 C84.61263465 0.22882519 84.61263465 0.22882519 89.0078125 -0.49609375 C91.72188113 -0.49956443 94.31202729 -0.36174586 97 0 C95.42774566 4.0442928 92.54827288 6.50573014 89.375 9.3125 C88.83302979 9.80032959 88.29105957 10.28815918 87.73266602 10.79077148 C84.20449731 13.95820604 80.64108239 17.08558969 77.05859375 20.19140625 C74.5104335 22.4301125 72.00589407 24.71410212 69.5 27 C62.77571435 33.12987366 55.91816679 39.09073253 49 45 C44.663068 43.60571103 42.3026632 41.59877071 39.1875 38.3125 C35.65672887 34.6089342 31.99099341 31.21029868 28.12573242 27.86743164 C24.51465341 24.69513999 21.04640272 21.37306041 17.5625 18.0625 C12.26581482 13.04118472 6.95226031 8.08829508 1.37109375 3.3828125 C0 2 0 2 0 0 Z " fill="#0C5D38" transform="translate(207,213)"/>
<path d="M0 0 C9.36746872 -1.06717998 9.36746872 -1.06717998 13.0078125 1.3125 C14.76355308 3.1417367 16.37042172 5.05805452 18 7 C19.39285593 8.29688634 20.80983222 9.56836232 22.25 10.8125 C22.89453125 11.37582031 23.5390625 11.93914062 24.203125 12.51953125 C26.14092081 14.16687572 26.14092081 14.16687572 29 16 C29.89203125 15.09636719 30.7840625 14.19273437 31.703125 13.26171875 C32.88528234 12.07017921 34.06758147 10.87878034 35.25 9.6875 C35.83652344 9.09259766 36.42304688 8.49769531 37.02734375 7.88476562 C44.72385396 0.1450166 44.72385396 0.1450166 48.578125 -0.29296875 C49.45984375 -0.25816406 50.3415625 -0.22335938 51.25 -0.1875 C52.58804688 -0.14689453 52.58804688 -0.14689453 53.953125 -0.10546875 C54.62859375 -0.07066406 55.3040625 -0.03585938 56 0 C54.50153206 3.62401213 52.44211507 5.6317703 49.5 8.1875 C48.60925781 8.96867188 47.71851563 9.74984375 46.80078125 10.5546875 C45.87652344 11.36164063 44.95226562 12.16859375 44 13 C42.22690687 14.60166855 40.45598783 16.20574794 38.6875 17.8125 C35.54468341 20.66441126 32.33425412 23.37390605 29 26 C26.07356763 24.67143806 23.9299237 23.20435823 21.609375 20.98828125 C20.98571045 20.39829346 20.3620459 19.80830566 19.71948242 19.20043945 C19.06955322 18.57741943 18.41962402 17.95439941 17.75 17.3125 C16.408512 16.04065342 15.06607288 14.76980924 13.72265625 13.5 C13.08086426 12.89285156 12.43907227 12.28570312 11.77783203 11.66015625 C9.0663598 9.12815801 6.26281732 6.71215842 3.41796875 4.33203125 C2 3 2 3 0 0 Z " fill="#0C5D38" transform="translate(227,213)"/>
<path d="M0 0 C3.71599191 -0.20086443 4.77208445 -0.1519437 8 2 C8.66 1.34 9.32 0.68 10 0 C12.625 -0.125 12.625 -0.125 15 0 C13.50902342 3.7952131 11.24299151 5.61042731 8 8 C4.63820226 6.55922954 2.40843732 4.75249979 0 2 C0 1.34 0 0.68 0 0 Z " fill="#0C5D38" transform="translate(248,213)"/>
</svg>
